solid OpenSCAD_Model
  facet normal -1 0 0
    outer loop
      vertex -0.5 -0.216249 -0.0999994
      vertex -0.5 0.216249 0.0999994
      vertex -0.5 0.216249 -0.0999994
    endloop
  endfacet
  facet normal -1 -0 0
    outer loop
      vertex -0.5 0.216249 0.0999994
      vertex -0.5 -0.216249 -0.0999994
      vertex -0.5 -0.216249 0.0999994
    endloop
  endfacet
  facet normal 1 -0 0
    outer loop
      vertex 0.5 -0.216249 0.0999994
      vertex 0.5 0.216249 -0.0999994
      vertex 0.5 0.216249 0.0999994
    endloop
  endfacet
  facet normal 1 0 0
    outer loop
      vertex 0.5 0.216249 -0.0999994
      vertex 0.5 -0.216249 0.0999994
      vertex 0.5 -0.216249 -0.0999994
    endloop
  endfacet
  facet normal 0 0 -1
    outer loop
      vertex -0.5 -0.216249 -0.0999994
      vertex 0.5 0.216249 -0.0999994
      vertex 0.5 -0.216249 -0.0999994
    endloop
  endfacet
  facet normal -0 0 -1
    outer loop
      vertex 0.5 0.216249 -0.0999994
      vertex -0.5 -0.216249 -0.0999994
      vertex -0.5 0.216249 -0.0999994
    endloop
  endfacet
  facet normal -0 0 1
    outer loop
      vertex -0.5 0.216249 0.0999994
      vertex 0.5 -0.216249 0.0999994
      vertex 0.5 0.216249 0.0999994
    endloop
  endfacet
  facet normal 0 0 1
    outer loop
      vertex 0.5 -0.216249 0.0999994
      vertex -0.5 0.216249 0.0999994
      vertex -0.5 -0.216249 0.0999994
    endloop
  endfacet
  facet normal 0 1 -0
    outer loop
      vertex 0.5 0.216249 -0.0999994
      vertex -0.5 0.216249 0.0999994
      vertex 0.5 0.216249 0.0999994
    endloop
  endfacet
  facet normal 0 1 0
    outer loop
      vertex -0.5 0.216249 0.0999994
      vertex 0.5 0.216249 -0.0999994
      vertex -0.5 0.216249 -0.0999994
    endloop
  endfacet
  facet normal 0 -1 0
    outer loop
      vertex -0.5 -0.216249 -0.0999994
      vertex 0.5 -0.216249 0.0999994
      vertex -0.5 -0.216249 0.0999994
    endloop
  endfacet
  facet normal 0 -1 -0
    outer loop
      vertex 0.5 -0.216249 0.0999994
      vertex -0.5 -0.216249 -0.0999994
      vertex 0.5 -0.216249 -0.0999994
    endloop
  endfacet
endsolid OpenSCAD_Model
